<svg width="47" height="43" viewBox="0 0 47 43" fill="none" xmlns="http://www.w3.org/2000/svg">
<g filter="url(#filter0_d_6540_20884)">
<path d="M23.9644 19.8906C25.968 19.8906 27.8896 19.0947 29.3063 17.6779C30.7231 16.2611 31.5191 14.3396 31.5191 12.3359C31.5191 10.3323 30.7231 8.41075 29.3063 6.99397C27.8896 5.57719 25.968 4.78125 23.9644 4.78125C21.9607 4.78125 20.0392 5.57719 18.6224 6.99397C17.2056 8.41075 16.4097 10.3323 16.4097 12.3359C16.4097 14.3396 17.2056 16.2611 18.6224 17.6779C20.0392 19.0947 21.9607 19.8906 23.9644 19.8906ZM29.0008 12.3359C29.0008 13.6717 28.4702 14.9527 27.5257 15.8973C26.5812 16.8418 25.3001 17.3724 23.9644 17.3724C22.6286 17.3724 21.3476 16.8418 20.4031 15.8973C19.4585 14.9527 18.9279 13.6717 18.9279 12.3359C18.9279 11.0002 19.4585 9.71915 20.4031 8.77463C21.3476 7.83011 22.6286 7.29948 23.9644 7.29948C25.3001 7.29948 26.5812 7.83011 27.5257 8.77463C28.4702 9.71915 29.0008 11.0002 29.0008 12.3359ZM39.0738 32.4818C39.0738 35 36.5555 35 36.5555 35H11.3732C11.3732 35 8.85498 35 8.85498 32.4818C8.85498 29.9636 11.3732 22.4089 23.9644 22.4089C36.5555 22.4089 39.0738 29.9636 39.0738 32.4818ZM36.5555 32.4717C36.553 31.8522 36.1677 29.9887 34.4604 28.2814C32.8185 26.6395 29.7286 24.9271 23.9644 24.9271C18.1976 24.9271 15.1103 26.6395 13.4684 28.2814C11.761 29.9887 11.3782 31.8522 11.3732 32.4717H36.5555Z" fill="black"/>
<path d="M5.88701 16.6708C4.845 17.1624 4.36873 18.3426 4.82364 19.3069C5.19087 20.0854 6.39266 21.7771 10.5243 22.1112C10.5981 22.1168 10.6732 22.1028 10.7414 22.0707C10.8095 22.0385 10.8681 21.9895 10.9107 21.9289C13.2802 18.5278 12.7389 16.5245 12.3717 15.7461C11.9168 14.7818 10.703 14.3988 9.66103 14.8904C8.61903 15.382 8.2732 16.8387 8.2732 16.8387C8.2732 16.8387 6.92902 16.1793 5.88701 16.6708Z" fill="black" stroke="black" stroke-width="0.932862" stroke-linecap="round" stroke-linejoin="round"/>
<path d="M37.3639 6.77577C38.0773 6.06494 39.1308 5.82417 39.8723 5.22626C40.6549 4.60059 40.7538 3.04693 39.1625 2.59777C38.1201 2.30355 37.3886 2.93708 36.9908 3.52044L35.5804 2.40701C36.3837 1.23593 37.8881 0.459607 39.6212 0.948809C41.0707 1.35793 41.8801 2.2886 42.156 3.24585C42.3904 4.06672 42.2745 5.44493 41.3338 6.22943C40.29 7.09638 39.4881 7.2244 38.9101 7.80939C38.677 8.04547 38.5638 8.21041 38.3099 9.11L36.5274 8.60687C36.655 8.13102 36.7989 7.33818 37.3639 6.77577ZM37.9444 11.6318C37.7556 12.3005 37.0461 12.6908 36.3677 12.4993C35.6892 12.3078 35.2885 11.6041 35.4772 10.9355C35.6659 10.2669 36.3755 9.87649 37.0539 10.068C37.7324 10.2595 38.1331 10.9632 37.9444 11.6318Z" fill="black"/>
</g>
<defs>
<filter id="filter0_d_6540_20884" x="0.18335" y="0.799957" width="46.0767" height="42.2001" filterUnits="userSpaceOnUse" color-interpolation-filters="sRGB">
<feFlood flood-opacity="0" result="BackgroundImageFix"/>
<feColorMatrix in="SourceAlpha" type="matrix" values="0 0 0 0 0 0 0 0 0 0 0 0 0 0 0 0 0 0 127 0" result="hardAlpha"/>
<feOffset dy="4"/>
<feGaussianBlur stdDeviation="2"/>
<feComposite in2="hardAlpha" operator="out"/>
<feColorMatrix type="matrix" values="0 0 0 0 0 0 0 0 0 0 0 0 0 0 0 0 0 0 0.25 0"/>
<feBlend mode="normal" in2="BackgroundImageFix" result="effect1_dropShadow_6540_20884"/>
<feBlend mode="normal" in="SourceGraphic" in2="effect1_dropShadow_6540_20884" result="shape"/>
</filter>
</defs>
</svg>
